M48
INCH
T01C.00787
T02C.00984
T03C.04016
T04C.085
;LEADER: 12 
;HEADER: 
;CODE  : ASCII 
;FILE  : BF537_v1_1-1-6.drl for board BF537_v1_1_pcb.brd ... layers TOP and BOTTOM
;T01 Holesize 1. = 7.870000 Tolerance = +0.000000/-0.000000 PLATED MILS
;T02 Holesize 2. = 9.840000 Tolerance = +0.000000/-0.000000 PLATED MILS
;T03 Holesize 3. = 40.160000 Tolerance = +0.000000/-0.000000 PLATED MILS
;T04 Holesize 4. = 85.000000 Tolerance = +0.000000/-0.000000 PLATED MILS
%
G90
T01
X0398425Y0067717
X0401575Y0067717
X0410315Y0084646
X0407165Y0081496
X0407165Y0084646
X0404016Y0084646
X0404016Y0081496
X0407165Y0078346
X0404016Y0078346
X0410315Y0087795
X0407165Y0087795
X0407165Y0072047
X0407165Y0068898
X0407165Y0065748
X0410315Y0065748
X0410315Y0062598
X0407165Y0062598
X0404016Y0072047
X0404016Y0068898
X0404016Y0065748
X0403150Y0088189
X0400394Y0088189
X0444961Y0090945
X0456693Y0096063
X0444961Y0084646
X0448110Y0081496
X0388268Y0078346
X0385039Y0072047
X0391417Y0053150
X0444961Y0078346
X0444961Y0068898
X0448110Y0068898
X0448110Y0072047
X0444961Y0072047
X0382283Y0072047
X0385118Y0084646
X0388268Y0084646
X0388268Y0059449
X0388268Y0053150
X0385118Y0065748
X0382283Y0078346
X0385118Y0078346
X0448110Y0087795
X0448110Y0090945
X0384252Y0054724
X0388268Y0046850
X0410315Y0046850
X0413465Y0046850
X0413465Y0043701
X0419764Y0046850
X0419764Y0043701
X0422913Y0046850
X0422913Y0043701
X0426063Y0046850
X0426063Y0043701
X0429213Y0046850
X0429213Y0043701
X0432362Y0046850
X0432362Y0043701
X0435512Y0046850
X0435512Y0043701
X0438661Y0046850
X0448110Y0053150
X0444961Y0056299
X0448110Y0056299
X0444961Y0059449
X0448110Y0059449
X0444961Y0062598
X0448110Y0062598
X0444961Y0065748
X0448110Y0065748
X0448110Y0078346
X0444961Y0081496
X0385118Y0059449
X0407165Y0103543
X0413465Y0103543
X0413465Y0100394
X0448110Y0097244
X0444961Y0097244
X0444961Y0106693
X0448110Y0100394
X0448110Y0103543
X0456693Y0092953
X0448110Y0043701
X0448110Y0106693
X0388307Y0043622
X0407165Y0046850
X0444961Y0046850
X0406693Y0052756
X0394094Y0072047
X0394094Y0078346
X0413465Y0062598
X0413465Y0068898
X0413465Y0065748
X0410315Y0068898
X0413465Y0072047
X0410315Y0072047
X0413465Y0087795
X0410315Y0078346
X0413465Y0078346
X0410315Y0081496
X0413465Y0081496
X0413465Y0084646
X0410630Y0052756
X0394882Y0067717
X0392126Y0067717
X0419291Y0052756
X0422835Y0052756
X0426378Y0052756
X0440551Y0062598
X0437008Y0062598
X0440551Y0089764
X0437402Y0089764
X0438976Y0087008
X0438976Y0083071
X0438976Y0079134
X0438976Y0072047
X0438976Y0068898
X0438976Y0065354
X0419764Y0072047
X0422913Y0072047
X0419764Y0068898
X0422913Y0068898
X0422913Y0065748
X0422913Y0078346
X0419764Y0078346
X0422913Y0081496
X0419764Y0081496
X0393307Y0088189
X0396457Y0088189
X0407087Y0097638
X0394094Y0084252
X0407165Y0106693
X0388268Y0103543
X0410630Y0097638
X0426378Y0097638
X0422835Y0097638
X0419291Y0097638
X0444961Y0103543
X0444961Y0100394
X0441811Y0103543
X0441811Y0106693
X0438661Y0103543
X0438661Y0106693
X0435512Y0103543
X0435512Y0106693
X0432362Y0103543
X0432362Y0106693
X0429213Y0103543
X0429213Y0106693
X0426063Y0103543
X0426063Y0106693
X0422913Y0103543
X0422913Y0106693
X0419764Y0103543
X0419764Y0106693
X0388268Y0065748
X0404016Y0050000
X0404016Y0106693
X0404016Y0103543
X0394567Y0106693
X0394567Y0103543
X0391417Y0103543
X0388268Y0106693
X0385118Y0106693
X0388268Y0100394
X0385118Y0100394
X0388268Y0097244
X0385118Y0097244
X0388268Y0094094
X0385118Y0094094
X0388268Y0087795
X0397717Y0043701
X0399606Y0057874
X0397283Y0053150
X0419764Y0065748
X0426063Y0078346
X0426063Y0081496
X0419764Y0084646
X0422913Y0084646
X0426063Y0084646
X0429213Y0084646
X0429213Y0081496
X0429213Y0078346
X0429213Y0087795
R02X-0003150
X0419764Y0087795
X0422913Y0062598
X0426063Y0065748
X0426063Y0068898
X0426063Y0072047
X0432677Y0062598
X0426063Y0062598
X0429213Y0062598
R02Y0003150
X0429213Y0072047
X0419764Y0062598
X0431102Y0089764
X0433858Y0089764
T02
X0378228Y0109134
X0377953Y0104724
X0377953Y0101417
X0381890Y0104331
X0381890Y0101181
X0377165Y0096850
X0380315Y0096850
X0396850Y0098819
X0379134Y0157087
X0363780Y0156693
X0439961Y0160039
X0461811Y0138583
X0461811Y0135039
X0433071Y0160236
X0363780Y0161417
X0380315Y0131890
X0379134Y0161417
X0363780Y0131890
X0370866Y0156693
X0351142Y0156693
X0456299Y0048425
X0453346Y0157677
X0433071Y0156693
X0440236Y0152402
X0350827Y0033465
X0481102Y0079921
X0481535Y0099606
X0480709Y0089370
X0482323Y0147423
X0481654Y0127559
X0477953Y0137795
X0467678Y0024822
X0356299Y0035827
X0459370Y0176378
X0469291Y0052362
X0458976Y0071260
X0367717Y0058268
X0348425Y0030709
X0478307Y0154331
X0439528Y0134646
X0424449Y0176378
X0375157Y0176772
X0456299Y0033071
X0420472Y0127953
X0414134Y0127953
X0338583Y0127953
X0395039Y0127559
X0380315Y0127559
X0364961Y0073228
X0469291Y0049213
X0477953Y0051575
X0368898Y0073228
X0372441Y0073228
X0371654Y0011024
X0376378Y0011024
X0385039Y0011024
X0380709Y0011024
X0394882Y0011024
X0389764Y0011024
X0424409Y0034252
X0405512Y0016535
X0412992Y0013780
X0375197Y0027953
X0378346Y0031102
X0392913Y0032047
X0400787Y0031890
X0405118Y0032047
X0396850Y0032047
X0407874Y0176378
X0388189Y0176772
X0364567Y0010236
X0398819Y0112205
X0381063Y0112835
X0324803Y0190945
X0324016Y0159449
X0324016Y0149606
X0324016Y0139764
X0324016Y0129921
X0324016Y0106299
X0324803Y0096457
X0324803Y0084646
X0324803Y0074803
X0324803Y0064961
X0324803Y0055118
X0324803Y0045276
X0324803Y0035433
X0324803Y0011811
X0324803Y0001969
X0508740Y0185039
X0508740Y0041339
X0508740Y0031496
X0508740Y0019685
X0508740Y0007874
X0508740Y-0001969
X0480315Y0179134
X0488189Y0179134
X0496063Y0179134
X0508654Y0179664
X0503937Y0185039
X0503926Y0179664
X0486220Y0053150
X0508740Y0053150
X0442913Y0035433
X0450787Y0035433
X0362205Y0041339
X0356299Y0031496
X0356299Y0051181
X0446220Y0122047
X0446220Y0118110
X0446220Y0112047
X0452756Y0122047
X0452756Y0118110
X0330960Y0190696
X0338583Y0181102
X0348425Y0181102
X0330709Y0182284
X0324803Y0182284
X0481654Y0116142
X0481654Y0110236
X0481654Y0104331
X0492126Y0053150
X0408268Y0013780
X0416142Y0016535
X0338976Y0141732
X0348425Y0141732
X0356693Y0141732
X0351181Y0150787
X0361024Y0150787
X0379134Y0150394
X0388583Y0150394
X0379134Y0143307
X0388583Y0143307
X0401181Y0150394
X0414567Y0150000
X0414173Y0142913
X0396457Y0138976
X0439370Y0140157
X0437008Y0147638
X0476378Y0163386
X0482677Y0168898
X0343174Y0177300
X0472406Y0024822
X0467678Y0029550
X0472406Y0029550
X0420472Y0131890
X0414173Y0131890
X0404724Y0131890
X0399606Y0131890
X0399606Y0127953
X0395276Y0131890
X0389370Y0128346
X0389370Y0132165
X0385827Y0156693
X0391732Y0156693
X0391732Y0161417
X0398386Y0156693
X0405512Y0156693
X0411417Y0155906
X0411024Y0161417
X0417323Y0155906
X0370079Y0127953
X0357441Y0161417
X0357441Y0156693
X0363780Y0127953
X0357480Y0131890
X0357480Y0127953
X0351181Y0131890
X0351181Y0127953
X0344882Y0131890
X0344882Y0127953
X0338583Y0131890
X0344882Y0151969
X0344843Y0161417
X0344843Y0156693
X0351142Y0161417
X0341598Y0009850
X0345538Y0009850
X0337401Y0009843
X0337264Y0014184
X0349478Y0009850
X0499986Y0033096
X0495258Y0033096
X0490530Y0033096
X0499986Y0029156
X0495258Y0029156
X0490530Y0029156
X0499986Y0024822
X0495258Y0024822
X0490530Y0024822
X0485039Y0036220
X0491339Y0048228
X0370472Y0041732
X0370472Y0046457
X0370472Y0051181
X0456299Y0044094
X0374016Y0065748
X0373976Y0059449
X0477480Y0057953
X0477480Y0064488
X0477480Y0071575
X0477520Y0079567
X0477520Y0089331
X0477520Y0099252
X0403150Y0112205
X0386614Y0112598
X0430512Y0117323
X0461417Y0122441
X0477913Y0133858
X0477913Y0124803
X0477913Y0144094
X0339196Y0177300
X0379173Y0176772
X0392520Y0176772
X0430512Y0176378
X0420433Y0176378
X0412205Y0176378
X0443543Y0175748
X0463819Y0176378
X0473661Y0175984
T03
X0341929Y0191417
X0341929Y0201417
X0351929Y0191417
X0351929Y0201417
X0361929Y0191417
X0361929Y0201417
X0371929Y0191417
X0371929Y0201417
X0381929Y0191417
X0381929Y0201417
X0391929Y0191417
X0391929Y0201417
X0401929Y0191417
X0401929Y0201417
X0411929Y0191417
X0411929Y0201417
X0421929Y0191417
X0421929Y0201417
X0431929Y0191417
X0431929Y0201417
X0441929Y0191417
X0441929Y0201417
X0451929Y0191417
X0451929Y0201417
X0461929Y0191417
X0461929Y0201417
X0471929Y0191417
X0471929Y0201417
X0481929Y0191417
X0481929Y0201417
X0491929Y0191417
X0491929Y0201417
X0505394Y0112126
X0495394Y0112126
X0505394Y0122126
X0495394Y0122126
X0505394Y0132126
X0495394Y0132126
X0505394Y0142126
X0495394Y0142126
X0505394Y0152126
X0495394Y0152126
X0505394Y0162126
X0495394Y0162126
X0505394Y0172126
X0495394Y0172126
X0505394Y0065709
X0495394Y0065709
X0505394Y0075709
X0495394Y0075709
X0505394Y0085709
X0495394Y0085709
X0505394Y0095709
X0495394Y0095709
X0491929Y-0004803
X0491929Y-0014803
X0481929Y-0004803
X0481929Y-0014803
X0471929Y-0004803
X0471929Y-0014803
X0461929Y-0004803
X0461929Y-0014803
X0451929Y-0004803
X0451929Y-0014803
X0441929Y-0004803
X0441929Y-0014803
X0431929Y-0004803
X0431929Y-0014803
X0421929Y-0004803
X0421929Y-0014803
X0411929Y-0004803
X0411929Y-0014803
X0401929Y-0004803
X0401929Y-0014803
X0391929Y-0004803
X0391929Y-0014803
X0381929Y-0004803
X0381929Y-0014803
X0371929Y-0004803
X0371929Y-0014803
X0361929Y-0004803
X0361929Y-0014803
X0351929Y-0004803
X0351929Y-0014803
X0341929Y-0004803
X0341929Y-0014803
X0456063Y0019291
R02X-0010000
T04
X0328202Y-0013396
X0328202Y0200152
X0505502Y-0013396
X0505502Y0200152
M30
